<?xml version="1.0" standalone="no"?>
<!DOCTYPE svg PUBLIC "-//W3C//DTD SVG 20010904//EN"
 "http://www.w3.org/TR/2001/REC-SVG-20010904/DTD/svg10.dtd">
<svg version="1.0" xmlns="http://www.w3.org/2000/svg"
 width="512.000000pt" height="512.000000pt" viewBox="0 0 512.000000 512.000000"
 preserveAspectRatio="xMidYMid meet">

<g transform="translate(0.000000,512.000000) scale(0.100000,-0.100000)"
fill="#000000" stroke="none">
<path d="M67 4583 c-4 -3 -7 -22 -7 -42 0 -32 28 -69 265 -354 193 -232 267
-328 275 -356 7 -27 9 -424 8 -1243 l-3 -1203 -22 -40 c-12 -22 -148 -193
-302 -379 -272 -329 -281 -341 -281 -383 l0 -43 760 0 760 0 0 48 c-1 47 -2
48 -290 396 -209 253 -294 362 -305 395 -13 39 -15 174 -14 1055 0 681 3 1006
10 996 6 -8 307 -661 669 -1450 l659 -1435 78 -3 79 -3 569 1443 c312 794 572
1447 577 1453 5 5 7 -528 6 -1184 l-3 -1194 -228 -221 -228 -221 3 -40 3 -40
1003 -3 1002 -2 0 43 c0 42 -2 44 -211 252 -115 116 -215 218 -220 227 -13 23
-13 2993 0 3017 6 10 107 111 225 226 l216 207 0 44 0 44 -705 0 c-661 0 -705
-1 -714 -17 -5 -10 -230 -569 -501 -1243 -271 -674 -495 -1231 -499 -1238 -4
-7 -258 538 -580 1243 l-574 1255 -737 0 c-405 0 -740 -3 -743 -7z"/>
</g>
</svg>
